<!--?xml version="1.0" standalone="no"?-->              <svg id="sw-js-blob-svg" viewBox="0 0 100 100" xmlns="http://www.w3.org/2000/svg" version="1.1">                    <defs>                         <linearGradient id="sw-gradient" x1="0" x2="1" y1="1" y2="0">                            <stop id="stop1" stop-color="rgba(136, 206, 2, 1)" offset="0%"></stop>                            <stop id="stop2" stop-color="rgba(136, 206, 2, 1)" offset="100%"></stop>                        </linearGradient>                    </defs>                <path fill="url(#sw-gradient)" d="M23.2,-25C30.2,-21.7,36.3,-14.6,36.7,-7.2C37.2,0.2,32,7.8,26.8,14.3C21.7,20.8,16.6,26.2,10.1,29.3C3.5,32.4,-4.4,33.2,-10.6,30.4C-16.9,27.6,-21.4,21.3,-26,14.4C-30.6,7.6,-35.3,0.3,-34.5,-6.4C-33.7,-13.1,-27.4,-19.1,-20.7,-22.5C-14,-25.9,-7,-26.7,0.5,-27.3C8.1,-27.9,16.1,-28.4,23.2,-25Z" width="100%" height="100%" transform="translate(50 50)" stroke-width="0" style="transition: all 0.3s ease 0s;"></path>              </svg>